{
  "accessors": [
    {
      "bufferView": 2,
      "componentType": 5126,
      "count": 85,
      "max": [
        24.974773406982422,
        30.15743637084961,
        22.44573211669922
      ],
      "min": [
        -23.359939575195313,
        -20.375146865844727,
        -1.914729118347168
      ],
      "type": "VEC3"
    },
    {
      "bufferView": 2,
      "byteOffset": 1020,
      "componentType": 5126,
      "count": 85,
      "max": [
        0.9967401623725891,
        0.9729546904563904,
        0.9897499680519104
      ],
      "min": [
        -0.9977906942367554,
        -0.971286952495575,
        -0.957351565361023
      ],
      "type": "VEC3"
    },
    {
      "bufferView": 3,
      "componentType": 5126,
      "count": 85,
      "max": [
        0.9896438717842102,
        0.9893848299980164,
        0.9971212148666382,
        1.0
      ],
      "min": [
        -0.9877291917800903,
        -0.8740677833557129,
        -0.9104409217834473,
        1.0
      ],
      "type": "VEC4"
    },
    {
      "bufferView": 1,
      "componentType": 5126,
      "count": 85,
      "max": [
        0.3622516989707947,
        0.7778106331825256
      ],
      "min": [
        0.0,
        3.7631817106920096e-10
      ],
      "type": "VEC2"
    },
    {
      "bufferView": 0,
      "componentType": 5125,
      "count": 384,
      "type": "SCALAR"
    },
    {
      "bufferView": 2,
      "byteOffset": 2040,
      "componentType": 5126,
      "count": 85,
      "max": [
        24.974773406982422,
        30.15743637084961,
        -2.4686574935913086
      ],
      "min": [
        -23.359939575195313,
        -20.375146865844727,
        -26.829116821289063
      ],
      "type": "VEC3"
    },
    {
      "bufferView": 2,
      "byteOffset": 3060,
      "componentType": 5126,
      "count": 85,
      "max": [
        0.9967401027679443,
        0.9729546904563904,
        0.9573516845703125
      ],
      "min": [
        -0.9977906942367554,
        -0.9712868928909302,
        -0.9897499680519104
      ],
      "type": "VEC3"
    },
    {
      "bufferView": 3,
      "byteOffset": 1360,
      "componentType": 5126,
      "count": 85,
      "max": [
        0.9896438717842102,
        0.9893850088119507,
        0.9104408025741577,
        -1.0
      ],
      "min": [
        -0.9877291321754456,
        -0.8740676641464233,
        -0.9971212148666382,
        -1.0
      ],
      "type": "VEC4"
    },
    {
      "bufferView": 1,
      "byteOffset": 680,
      "componentType": 5126,
      "count": 85,
      "max": [
        0.44622766971588135,
        0.7778106331825256
      ],
      "min": [
        0.08397595584392548,
        -1.7554757831845375e-17
      ],
      "type": "VEC2"
    },
    {
      "bufferView": 0,
      "byteOffset": 1536,
      "componentType": 5125,
      "count": 384,
      "type": "SCALAR"
    },
    {
      "bufferView": 2,
      "byteOffset": 4080,
      "componentType": 5126,
      "count": 39,
      "max": [
        4.048655986785889,
        4.048655986785889,
        12.035438537597656
      ],
      "min": [
        -4.048655986785889,
        -4.048655986785889,
        -1.0949326423315142e-07
      ],
      "type": "VEC3"
    },
    {
      "bufferView": 2,
      "byteOffset": 4548,
      "componentType": 5126,
      "count": 39,
      "max": [
        0.9959535002708435,
        0.9959535002708435,
        1.0
      ],
      "min": [
        -0.9959535002708435,
        -0.9959535598754883,
        0.08987016975879669
      ],
      "type": "VEC3"
    },
    {
      "bufferView": 3,
      "byteOffset": 2720,
      "componentType": 5126,
      "count": 39,
      "max": [
        0.9890145659446716,
        1.0,
        0.72732013463974,
        1.0
      ],
      "min": [
        -0.9994186758995056,
        -0.9841238260269165,
        -0.7273200750350952,
        1.0
      ],
      "type": "VEC4"
    },
    {
      "bufferView": 1,
      "byteOffset": 1360,
      "componentType": 5126,
      "count": 39,
      "max": [
        0.5545244216918945,
        0.5992494225502014
      ],
      "min": [
        0.35800275206565857,
        0.0752718597650528
      ],
      "type": "VEC2"
    },
    {
      "bufferView": 0,
      "byteOffset": 3072,
      "componentType": 5125,
      "count": 108,
      "type": "SCALAR"
    },
    {
      "bufferView": 2,
      "byteOffset": 5016,
      "componentType": 5126,
      "count": 26,
      "max": [
        1.543742299079895,
        1.5437421798706055,
        6.649883270263672
      ],
      "min": [
        -1.5437421798706055,
        -1.5437421798706055,
        0.0
      ],
      "type": "VEC3"
    },
    {
      "bufferView": 2,
      "byteOffset": 5328,
      "componentType": 5126,
      "count": 26,
      "max": [
        1.0,
        1.0,
        1.88701232417543e-08
      ],
      "min": [
        -1.0,
        -1.0,
        -1.8144334035241627e-08
      ],
      "type": "VEC3"
    },
    {
      "bufferView": 3,
      "byteOffset": 3344,
      "componentType": 5126,
      "count": 26,
      "max": [
        0.9998986124992371,
        0.9998985528945923,
        -0.014245795086026192,
        1.0
      ],
      "min": [
        -0.9998985528945923,
        -0.9998986124992371,
        -0.014246110804378986,
        1.0
      ],
      "type": "VEC4"
    },
    {
      "bufferView": 1,
      "byteOffset": 1672,
      "componentType": 5126,
      "count": 26,
      "max": [
        0.5381083488464355,
        0.04670798033475876
      ],
      "min": [
        0.4714439809322357,
        6.086933808546746e-06
      ],
      "type": "VEC2"
    },
    {
      "bufferView": 0,
      "byteOffset": 3504,
      "componentType": 5125,
      "count": 72,
      "type": "SCALAR"
    },
    {
      "bufferView": 2,
      "byteOffset": 5640,
      "componentType": 5126,
      "count": 72,
      "max": [
        8.00831413269043,
        4.955722332000732,
        10.955169677734375
      ],
      "min": [
        -5.162676811218262,
        -5.004324436187744,
        2.9787955284118652
      ],
      "type": "VEC3"
    },
    {
      "bufferView": 2,
      "byteOffset": 6504,
      "componentType": 5126,
      "count": 72,
      "max": [
        0.9573349356651306,
        1.0,
        0.995881974697113
      ],
      "min": [
        -1.0,
        -0.9999454617500305,
        -0.995881974697113
      ],
      "type": "VEC3"
    },
    {
      "bufferView": 3,
      "byteOffset": 3760,
      "componentType": 5126,
      "count": 72,
      "max": [
        0.9947815537452698,
        0.9978895783424377,
        0.9992574453353882,
        1.0
      ],
      "min": [
        -0.7195414304733276,
        -0.7793343663215637,
        -0.9660753011703491,
        1.0
      ],
      "type": "VEC4"
    },
    {
      "bufferView": 1,
      "byteOffset": 1880,
      "componentType": 5126,
      "count": 72,
      "max": [
        0.9998511672019958,
        0.33729925751686096
      ],
      "min": [
        0.5406873226165771,
        2.2626218196819536e-06
      ],
      "type": "VEC2"
    },
    {
      "bufferView": 0,
      "byteOffset": 3792,
      "componentType": 5125,
      "count": 288,
      "type": "SCALAR"
    },
    {
      "bufferView": 2,
      "byteOffset": 7368,
      "componentType": 5126,
      "count": 26,
      "max": [
        1.7000000476837158,
        1.7000000476837158,
        22.75
      ],
      "min": [
        -1.7000000476837158,
        -1.7000000476837158,
        0.0
      ],
      "type": "VEC3"
    },
    {
      "bufferView": 2,
      "byteOffset": 7680,
      "componentType": 5126,
      "count": 26,
      "max": [
        1.0,
        1.0,
        0.0
      ],
      "min": [
        -1.0,
        -1.0,
        0.0
      ],
      "type": "VEC3"
    },
    {
      "bufferView": 3,
      "byteOffset": 4912,
      "componentType": 5126,
      "count": 26,
      "max": [
        0.9999751448631287,
        0.9999752044677734,
        0.007066082209348679,
        1.0
      ],
      "min": [
        -0.9999751448631287,
        -0.9999751448631287,
        0.007055596448481083,
        1.0
      ],
      "type": "VEC4"
    },
    {
      "bufferView": 1,
      "byteOffset": 2456,
      "componentType": 5126,
      "count": 26,
      "max": [
        0.6586766839027405,
        0.7031350135803223
      ],
      "min": [
        0.5848851799964905,
        0.5459645390510559
      ],
      "type": "VEC2"
    },
    {
      "bufferView": 0,
      "byteOffset": 4944,
      "componentType": 5125,
      "count": 72,
      "type": "SCALAR"
    },
    {
      "bufferView": 2,
      "byteOffset": 7992,
      "componentType": 5126,
      "count": 26,
      "max": [
        1.6999999284744263,
        23.360973358154297,
        22.749990463256836
      ],
      "min": [
        -1.6999995708465576,
        19.96097183227539,
        -3.814697265625e-06
      ],
      "type": "VEC3"
    },
    {
      "bufferView": 2,
      "byteOffset": 8304,
      "componentType": 5126,
      "count": 26,
      "max": [
        1.0,
        1.0,
        0.0
      ],
      "min": [
        -1.0,
        -1.0,
        0.0
      ],
      "type": "VEC3"
    },
    {
      "bufferView": 3,
      "byteOffset": 5328,
      "componentType": 5126,
      "count": 26,
      "max": [
        0.9999750852584839,
        0.9999751448631287,
        0.007066086400300264,
        -1.0
      ],
      "min": [
        -0.9999751448631287,
        -0.9999751448631287,
        0.007055590394884348,
        -1.0
      ],
      "type": "VEC4"
    },
    {
      "bufferView": 1,
      "byteOffset": 2664,
      "componentType": 5126,
      "count": 26,
      "max": [
        0.37581029534339905,
        0.932405412197113
      ],
      "min": [
        0.30201879143714905,
        0.7752349972724915
      ],
      "type": "VEC2"
    },
    {
      "bufferView": 0,
      "byteOffset": 5232,
      "componentType": 5125,
      "count": 72,
      "type": "SCALAR"
    },
    {
      "bufferView": 2,
      "byteOffset": 8616,
      "componentType": 5126,
      "count": 111,
      "max": [
        26.46786880493164,
        8.006917953491211,
        24.312625885009766
      ],
      "min": [
        -16.013835906982422,
        -8.006917953491211,
        -2.390873908996582
      ],
      "type": "VEC3"
    },
    {
      "bufferView": 2,
      "byteOffset": 9948,
      "componentType": 5126,
      "count": 111,
      "max": [
        0.9939741492271423,
        1.0,
        0.9999868273735046
      ],
      "min": [
        -0.8884795308113098,
        -1.0,
        -0.9012174606323242
      ],
      "type": "VEC3"
    },
    {
      "bufferView": 3,
      "byteOffset": 5744,
      "componentType": 5126,
      "count": 111,
      "max": [
        0.9924735426902771,
        0.7691946625709534,
        0.9729884266853333,
        1.0
      ],
      "min": [
        -0.9710388779640198,
        -0.9346866607666016,
        -0.9726157784461975,
        -1.0
      ],
      "type": "VEC4"
    },
    {
      "bufferView": 1,
      "byteOffset": 2872,
      "componentType": 5126,
      "count": 111,
      "max": [
        0.9803153872489929,
        0.5448160171508789
      ],
      "min": [
        0.2519278824329376,
        3.318718881928362e-06
      ],
      "type": "VEC2"
    },
    {
      "bufferView": 0,
      "byteOffset": 5520,
      "componentType": 5125,
      "count": 360,
      "type": "SCALAR"
    },
    {
      "bufferView": 2,
      "byteOffset": 11280,
      "componentType": 5126,
      "count": 18,
      "max": [
        1.630972981452942,
        0.8392338752746582,
        0.8407872915267944
      ],
      "min": [
        -0.9332025051116943,
        -1.2331843376159668,
        0.21921250224113464
      ],
      "type": "VEC3"
    },
    {
      "bufferView": 2,
      "byteOffset": 11496,
      "componentType": 5126,
      "count": 18,
      "max": [
        0.5900503993034363,
        0.1299484372138977,
        1.0
      ],
      "min": [
        -0.6735810041427612,
        -0.6760700941085815,
        -1.0
      ],
      "type": "VEC3"
    },
    {
      "bufferView": 3,
      "byteOffset": 7520,
      "componentType": 5126,
      "count": 18,
      "max": [
        0.9952726364135742,
        0.6125229597091675,
        0.751583993434906,
        1.0
      ],
      "min": [
        -0.9192042350769043,
        -0.5777397751808167,
        -0.8230114579200745,
        1.0
      ],
      "type": "VEC4"
    },
    {
      "bufferView": 1,
      "byteOffset": 3760,
      "componentType": 5126,
      "count": 18,
      "max": [
        0.33635520935058594,
        0.04283522814512253
      ],
      "min": [
        0.29023268818855286,
        0.021878670901060104
      ],
      "type": "VEC2"
    },
    {
      "bufferView": 0,
      "byteOffset": 6960,
      "componentType": 5125,
      "count": 48,
      "type": "SCALAR"
    },
    {
      "bufferView": 2,
      "byteOffset": 11712,
      "componentType": 5126,
      "count": 91,
      "max": [
        6.966055393218994,
        2.930081844329834,
        15.001680374145508
      ],
      "min": [
        -3.8418233394622803,
        -5.317758083343506,
        -18.112613677978516
      ],
      "type": "VEC3"
    },
    {
      "bufferView": 2,
      "byteOffset": 12804,
      "componentType": 5126,
      "count": 91,
      "max": [
        0.9972635507583618,
        0.9999271035194397,
        0.8660253286361694
      ],
      "min": [
        -0.9992853403091431,
        -0.9965162873268127,
        -0.9670791625976563
      ],
      "type": "VEC3"
    },
    {
      "bufferView": 3,
      "byteOffset": 7808,
      "componentType": 5126,
      "count": 91,
      "max": [
        0.9749106764793396,
        0.9999997019767761,
        0.5236930251121521,
        1.0
      ],
      "min": [
        -0.9937717318534851,
        -0.889801025390625,
        -0.8851206302642822,
        1.0
      ],
      "type": "VEC4"
    },
    {
      "bufferView": 1,
      "byteOffset": 3904,
      "componentType": 5126,
      "count": 91,
      "max": [
        0.9714048504829407,
        0.2511770725250244
      ],
      "min": [
        0.6349760890007019,
        6.051328455214389e-06
      ],
      "type": "VEC2"
    },
    {
      "bufferView": 0,
      "byteOffset": 7152,
      "componentType": 5125,
      "count": 360,
      "type": "SCALAR"
    },
    {
      "bufferView": 2,
      "byteOffset": 13896,
      "componentType": 5126,
      "count": 91,
      "max": [
        6.966054916381836,
        26.978734970092773,
        15.001676559448242
      ],
      "min": [
        -3.841822385787964,
        18.730894088745117,
        -18.112611770629883
      ],
      "type": "VEC3"
    },
    {
      "bufferView": 2,
      "byteOffset": 14988,
      "componentType": 5126,
      "count": 91,
      "max": [
        0.9972635507583618,
        0.996516227722168,
        0.8660253882408142
      ],
      "min": [
        -0.9992852807044983,
        -0.9999270439147949,
        -0.9670791625976563
      ],
      "type": "VEC3"
    },
    {
      "bufferView": 3,
      "byteOffset": 9264,
      "componentType": 5126,
      "count": 91,
      "max": [
        0.9749106764793396,
        0.8898014426231384,
        0.5236930847167969,
        -1.0
      ],
      "min": [
        -0.9937716722488403,
        -0.9999997019767761,
        -0.8851207494735718,
        -1.0
      ],
      "type": "VEC4"
    },
    {
      "bufferView": 1,
      "byteOffset": 4632,
      "componentType": 5126,
      "count": 91,
      "max": [
        0.9998685717582703,
        0.9521692991256714
      ],
      "min": [
        0.6055108308792114,
        0.04438119754195213
      ],
      "type": "VEC2"
    },
    {
      "bufferView": 0,
      "byteOffset": 8592,
      "componentType": 5125,
      "count": 360,
      "type": "SCALAR"
    },
    {
      "bufferView": 2,
      "byteOffset": 16080,
      "componentType": 5126,
      "count": 81,
      "max": [
        5.720678806304932,
        4.87398624420166,
        12.918423652648926
      ],
      "min": [
        -7.01771879196167,
        -5.008889198303223,
        10.918420791625977
      ],
      "type": "VEC3"
    },
    {
      "bufferView": 2,
      "byteOffset": 17052,
      "componentType": 5126,
      "count": 81,
      "max": [
        0.9999857544898987,
        0.9998958110809326,
        1.0
      ],
      "min": [
        -0.9999858140945435,
        -0.9998958706855774,
        -1.0
      ],
      "type": "VEC3"
    },
    {
      "bufferView": 3,
      "byteOffset": 10720,
      "componentType": 5126,
      "count": 81,
      "max": [
        0.7184082269668579,
        0.9899635910987854,
        1.0,
        1.0
      ],
      "min": [
        -0.9968932271003723,
        -0.9682642221450806,
        -0.8353170156478882,
        1.0
      ],
      "type": "VEC4"
    },
    {
      "bufferView": 1,
      "byteOffset": 5360,
      "componentType": 5126,
      "count": 81,
      "max": [
        0.8833143711090088,
        0.3544543385505676
      ],
      "min": [
        0.0,
        3.0402318316191668e-06
      ],
      "type": "VEC2"
    },
    {
      "bufferView": 0,
      "byteOffset": 10032,
      "componentType": 5125,
      "count": 360,
      "type": "SCALAR"
    },
    {
      "bufferView": 2,
      "byteOffset": 18024,
      "componentType": 5126,
      "count": 117,
      "max": [
        8.009486198425293,
        7.050628185272217,
        0.9999998807907104
      ],
      "min": [
        -8.009486198425293,
        -3.2871241569519043,
        -1.0000005960464478
      ],
      "type": "VEC3"
    },
    {
      "bufferView": 2,
      "byteOffset": 19428,
      "componentType": 5126,
      "count": 117,
      "max": [
        0.9807542562484741,
        0.9807541370391846,
        0.9988954663276672
      ],
      "min": [
        -0.9807542562484741,
        -0.980754554271698,
        -0.9988954663276672
      ],
      "type": "VEC3"
    },
    {
      "bufferView": 3,
      "byteOffset": 12016,
      "componentType": 5126,
      "count": 117,
      "max": [
        0.9977805018424988,
        0.9997272491455078,
        0.3923586905002594,
        1.0
      ],
      "min": [
        -0.9997738599777222,
        -0.9974232912063599,
        -0.6169588565826416,
        1.0
      ],
      "type": "VEC4"
    },
    {
      "bufferView": 1,
      "byteOffset": 6008,
      "componentType": 5126,
      "count": 117,
      "max": [
        0.4688141942024231,
        0.12834851443767548
      ],
      "min": [
        0.19447064399719238,
        3.3048263503587805e-06
      ],
      "type": "VEC2"
    },
    {
      "bufferView": 0,
      "byteOffset": 11472,
      "componentType": 5125,
      "count": 576,
      "type": "SCALAR"
    },
    {
      "bufferView": 2,
      "byteOffset": 20832,
      "componentType": 5126,
      "count": 52,
      "max": [
        2.2949371337890625,
        2.2949371337890625,
        15.82170295715332
      ],
      "min": [
        -2.2949371337890625,
        -2.2949371337890625,
        0.0
      ],
      "type": "VEC3"
    },
    {
      "bufferView": 2,
      "byteOffset": 21456,
      "componentType": 5126,
      "count": 52,
      "max": [
        0.7571625709533691,
        0.7571624517440796,
        1.0
      ],
      "min": [
        -0.7571625113487244,
        -0.7571625113487244,
        -1.0
      ],
      "type": "VEC3"
    },
    {
      "bufferView": 3,
      "byteOffset": 13888,
      "componentType": 5126,
      "count": 52,
      "max": [
        1.0,
        0.6491858959197998,
        0.7571623921394348,
        1.0
      ],
      "min": [
        -0.6491858959197998,
        -0.6491858959197998,
        -0.7571623921394348,
        1.0
      ],
      "type": "VEC4"
    },
    {
      "bufferView": 1,
      "byteOffset": 6944,
      "componentType": 5126,
      "count": 52,
      "max": [
        0.9987127780914307,
        0.6476451754570007
      ],
      "min": [
        0.31969794631004333,
        5.566837444348494e-06
      ],
      "type": "VEC2"
    },
    {
      "bufferView": 0,
      "byteOffset": 13776,
      "componentType": 5125,
      "count": 144,
      "type": "SCALAR"
    },
    {
      "bufferView": 2,
      "byteOffset": 22080,
      "componentType": 5126,
      "count": 12,
      "max": [
        2.834251642227173,
        1.1542067527770996,
        3.590731143951416
      ],
      "min": [
        -2.834251642227173,
        -1.1542067527770996,
        0.0
      ],
      "type": "VEC3"
    },
    {
      "bufferView": 2,
      "byteOffset": 22224,
      "componentType": 5126,
      "count": 12,
      "max": [
        0.7071068286895752,
        0.7071067690849304,
        0.5773503184318542
      ],
      "min": [
        -0.7071068286895752,
        -0.7071067690849304,
        0.0
      ],
      "type": "VEC3"
    },
    {
      "bufferView": 3,
      "byteOffset": 14720,
      "componentType": 5126,
      "count": 12,
      "max": [
        0.7875195741653442,
        0.7436838150024414,
        0.7875190377235413,
        1.0
      ],
      "min": [
        -0.6670807003974915,
        -0.8056998252868652,
        -0.889359176158905,
        1.0
      ],
      "type": "VEC4"
    },
    {
      "bufferView": 1,
      "byteOffset": 7360,
      "componentType": 5126,
      "count": 12,
      "max": [
        0.10580131411552429,
        0.6441887021064758
      ],
      "min": [
        0.01767914928495884,
        0.5407781004905701
      ],
      "type": "VEC2"
    },
    {
      "bufferView": 0,
      "byteOffset": 14352,
      "componentType": 5125,
      "count": 30,
      "type": "SCALAR"
    },
    {
      "bufferView": 2,
      "byteOffset": 22368,
      "componentType": 5126,
      "count": 12,
      "max": [
        4.500161170959473,
        27.818370819091797,
        -0.3560018539428711
      ],
      "min": [
        -1.4615130424499512,
        23.848342895507813,
        -4.604186058044434
      ],
      "type": "VEC3"
    },
    {
      "bufferView": 2,
      "byteOffset": 22512,
      "componentType": 5126,
      "count": 12,
      "max": [
        0.7830461859703064,
        0.7940583229064941,
        0.7429572939872742
      ],
      "min": [
        -0.7830458283424377,
        -0.7454689145088196,
        -0.24040336906909943
      ],
      "type": "VEC3"
    },
    {
      "bufferView": 3,
      "byteOffset": 14912,
      "componentType": 5126,
      "count": 12,
      "max": [
        0.7948985695838928,
        0.8222209215164185,
        0.5553723573684692,
        -1.0
      ],
      "min": [
        -0.5977759957313538,
        -0.9214182496070862,
        -0.9520112872123718,
        -1.0
      ],
      "type": "VEC4"
    },
    {
      "bufferView": 1,
      "byteOffset": 7456,
      "componentType": 5126,
      "count": 12,
      "max": [
        0.32973718643188477,
        0.20111346244812012
      ],
      "min": [
        0.24161502718925476,
        0.09770284593105316
      ],
      "type": "VEC2"
    },
    {
      "bufferView": 0,
      "byteOffset": 14472,
      "componentType": 5125,
      "count": 30,
      "type": "SCALAR"
    },
    {
      "bufferView": 2,
      "byteOffset": 22656,
      "componentType": 5126,
      "count": 114,
      "max": [
        21.54791259765625,
        9.154009819030762,
        9.295226097106934
      ],
      "min": [
        -6.387184043887828e-07,
        -9.154009819030762,
        -9.295223236083984
      ],
      "type": "VEC3"
    },
    {
      "bufferView": 2,
      "byteOffset": 24024,
      "componentType": 5126,
      "count": 114,
      "max": [
        1.0,
        0.9831796884536743,
        0.998346745967865
      ],
      "min": [
        -1.0,
        -0.9831798076629639,
        -0.9983468651771545
      ],
      "type": "VEC3"
    },
    {
      "bufferView": 3,
      "byteOffset": 15104,
      "componentType": 5126,
      "count": 114,
      "max": [
        0.9876530170440674,
        1.0,
        0.927897036075592,
        1.0
      ],
      "min": [
        -0.6862829923629761,
        -0.737157940864563,
        -0.7355865240097046,
        1.0
      ],
      "type": "VEC4"
    },
    {
      "bufferView": 1,
      "byteOffset": 7552,
      "componentType": 5126,
      "count": 114,
      "max": [
        0.8781399130821228,
        0.7776707410812378
      ],
      "min": [
        0.10165510326623917,
        0.37467384338378906
      ],
      "type": "VEC2"
    },
    {
      "bufferView": 0,
      "byteOffset": 14592,
      "componentType": 5125,
      "count": 432,
      "type": "SCALAR"
    },
    {
      "bufferView": 2,
      "byteOffset": 25392,
      "componentType": 5126,
      "count": 12,
      "max": [
        4.841310501098633,
        1.1542071104049683,
        3.590731143951416
      ],
      "min": [
        -4.597902774810791,
        -1.1542072296142578,
        0.7462148666381836
      ],
      "type": "VEC3"
    },
    {
      "bufferView": 2,
      "byteOffset": 25536,
      "componentType": 5126,
      "count": 12,
      "max": [
        0.7071069478988647,
        0.7071068286895752,
        0.5773503184318542
      ],
      "min": [
        -0.7071068286895752,
        -0.7071068286895752,
        -4.4450640501736416e-08
      ],
      "type": "VEC3"
    },
    {
      "bufferView": 3,
      "byteOffset": 16928,
      "componentType": 5126,
      "count": 12,
      "max": [
        0.8096956610679626,
        0.7868359684944153,
        0.5822745561599731,
        1.0
      ],
      "min": [
        -0.7990737557411194,
        -0.7526301741600037,
        -0.5448325276374817,
        1.0
      ],
      "type": "VEC4"
    },
    {
      "bufferView": 1,
      "byteOffset": 8464,
      "componentType": 5126,
      "count": 12,
      "max": [
        0.3320919871330261,
        0.06192011758685112
      ],
      "min": [
        0.1708984375,
        2.4042874429142103e-06
      ],
      "type": "VEC2"
    },
    {
      "bufferView": 0,
      "byteOffset": 16320,
      "componentType": 5125,
      "count": 30,
      "type": "SCALAR"
    },
    {
      "bufferView": 2,
      "byteOffset": 25680,
      "componentType": 5126,
      "count": 52,
      "max": [
        3.08394718170166,
        2.930081605911255,
        15.001680374145508
      ],
      "min": [
        -3.113577365875244,
        -2.930081605911255,
        4.440909385681152
      ],
      "type": "VEC3"
    },
    {
      "bufferView": 2,
      "byteOffset": 26304,
      "componentType": 5126,
      "count": 52,
      "max": [
        0.9033828973770142,
        0.7613440752029419,
        0.8660253286361694
      ],
      "min": [
        -0.7594376802444458,
        -0.7613442540168762,
        -1.0
      ],
      "type": "VEC3"
    },
    {
      "bufferView": 3,
      "byteOffset": 17120,
      "componentType": 5126,
      "count": 52,
      "max": [
        0.997980535030365,
        0.9999998211860657,
        0.7582364082336426,
        1.0
      ],
      "min": [
        -0.9988919496536255,
        -0.9999809265136719,
        -0.7582364082336426,
        1.0
      ],
      "type": "VEC4"
    },
    {
      "bufferView": 1,
      "byteOffset": 8560,
      "componentType": 5126,
      "count": 52,
      "max": [
        0.9302091002464294,
        0.673564612865448
      ],
      "min": [
        0.44197872281074524,
        3.741015007108217e-06
      ],
      "type": "VEC2"
    },
    {
      "bufferView": 0,
      "byteOffset": 16440,
      "componentType": 5125,
      "count": 144,
      "type": "SCALAR"
    },
    {
      "bufferView": 2,
      "byteOffset": 26928,
      "componentType": 5126,
      "count": 52,
      "max": [
        3.0839436054229736,
        24.591045379638672,
        15.001678466796875
      ],
      "min": [
        -3.1135811805725098,
        18.730884552001953,
        4.440910339355469
      ],
      "type": "VEC3"
    },
    {
      "bufferView": 2,
      "byteOffset": 27552,
      "componentType": 5126,
      "count": 52,
      "max": [
        0.9033826589584351,
        0.7613444924354553,
        0.866025447845459
      ],
      "min": [
        -0.759437620639801,
        -0.7613442540168762,
        -1.0
      ],
      "type": "VEC3"
    },
    {
      "bufferView": 3,
      "byteOffset": 17952,
      "componentType": 5126,
      "count": 52,
      "max": [
        0.9979804754257202,
        0.9999810457229614,
        0.7582365274429321,
        -1.0
      ],
      "min": [
        -0.9988919496536255,
        -0.9999998807907104,
        -0.7582364678382874,
        -1.0
      ],
      "type": "VEC4"
    },
    {
      "bufferView": 1,
      "byteOffset": 8976,
      "componentType": 5126,
      "count": 52,
      "max": [
        0.9729337096214294,
        0.9864725470542908
      ],
      "min": [
        0.39925411343574524,
        3.7403447095130105e-06
      ],
      "type": "VEC2"
    },
    {
      "bufferView": 0,
      "byteOffset": 17016,
      "componentType": 5125,
      "count": 144,
      "type": "SCALAR"
    },
    {
      "bufferView": 2,
      "byteOffset": 28176,
      "componentType": 5126,
      "count": 42,
      "max": [
        13.381067276000977,
        1.54048490524292,
        6.774000644683838
      ],
      "min": [
        -15.111123085021973,
        -1.54048490524292,
        -1.2281718254089355
      ],
      "type": "VEC3"
    },
    {
      "bufferView": 2,
      "byteOffset": 28680,
      "componentType": 5126,
      "count": 42,
      "max": [
        0.003975921776145697,
        0.9999921321868896,
        0.7141252756118774
      ],
      "min": [
        -0.7458664178848267,
        -0.9999921321868896,
        -0.7141261696815491
      ],
      "type": "VEC3"
    },
    {
      "bufferView": 3,
      "byteOffset": 18784,
      "componentType": 5126,
      "count": 42,
      "max": [
        0.675720751285553,
        0.7204288840293884,
        0.9945955276489258,
        1.0
      ],
      "min": [
        -0.6769362092018127,
        -0.7314559817314148,
        -0.9945970177650452,
        1.0
      ],
      "type": "VEC4"
    },
    {
      "bufferView": 1,
      "byteOffset": 9392,
      "componentType": 5126,
      "count": 42,
      "max": [
        0.15589256584644318,
        0.5484923720359802
      ],
      "min": [
        0.0,
        0.11872923374176025
      ],
      "type": "VEC2"
    },
    {
      "bufferView": 0,
      "byteOffset": 17592,
      "componentType": 5125,
      "count": 126,
      "type": "SCALAR"
    },
    {
      "bufferView": 2,
      "byteOffset": 29184,
      "componentType": 5126,
      "count": 514,
      "max": [
        21.36884880065918,
        -4.136500712272062e-13,
        21.36884880065918
      ],
      "min": [
        -21.368846893310547,
        -1.082538366317749,
        -21.36884880065918
      ],
      "type": "VEC3"
    },
    {
      "bufferView": 2,
      "byteOffset": 35352,
      "componentType": 5126,
      "count": 514,
      "max": [
        0.999958336353302,
        1.0,
        0.999958336353302
      ],
      "min": [
        -0.9999583959579468,
        -1.0,
        -0.999958336353302
      ],
      "type": "VEC3"
    },
    {
      "bufferView": 3,
      "byteOffset": 19456,
      "componentType": 5126,
      "count": 514,
      "max": [
        0.9998835921287537,
        0.9988508820533752,
        0.9870419502258301,
        1.0
      ],
      "min": [
        -0.978454053401947,
        -0.9988508224487305,
        -0.9508612751960754,
        1.0
      ],
      "type": "VEC4"
    },
    {
      "bufferView": 1,
      "byteOffset": 9728,
      "componentType": 5126,
      "count": 514,
      "max": [
        0.9988657832145691,
        1.0
      ],
      "min": [
        0.0,
        0.047133669257164
      ],
      "type": "VEC2"
    },
    {
      "bufferView": 0,
      "byteOffset": 18096,
      "componentType": 5125,
      "count": 1344,
      "type": "SCALAR"
    },
    {
      "bufferView": 4,
      "componentType": 5126,
      "count": 36,
      "max": [
        5.0
      ],
      "min": [
        0.36666667461395264
      ],
      "type": "SCALAR"
    },
    {
      "bufferView": 5,
      "componentType": 5126,
      "count": 36,
      "max": [
        0.0,
        0.15147501230239868,
        0.0
      ],
      "min": [
        0.0,
        -0.75,
        0.0
      ],
      "type": "VEC3"
    },
    {
      "bufferView": 4,
      "byteOffset": 144,
      "componentType": 5126,
      "count": 36,
      "max": [
        5.0
      ],
      "min": [
        0.36666667461395264
      ],
      "type": "SCALAR"
    },
    {
      "bufferView": 5,
      "byteOffset": 432,
      "componentType": 5126,
      "count": 36,
      "max": [
        0.0,
        0.15147501230239868,
        0.0
      ],
      "min": [
        0.0,
        -0.75,
        0.0
      ],
      "type": "VEC3"
    },
    {
      "bufferView": 4,
      "byteOffset": 288,
      "componentType": 5126,
      "count": 36,
      "max": [
        5.0
      ],
      "min": [
        0.36666667461395264
      ],
      "type": "SCALAR"
    },
    {
      "bufferView": 5,
      "byteOffset": 864,
      "componentType": 5126,
      "count": 36,
      "max": [
        0.0,
        0.15147501230239868,
        0.0
      ],
      "min": [
        0.0,
        -0.75,
        0.0
      ],
      "type": "VEC3"
    },
    {
      "bufferView": 4,
      "byteOffset": 432,
      "componentType": 5126,
      "count": 70,
      "max": [
        5.0
      ],
      "min": [
        0.36666667461395264
      ],
      "type": "SCALAR"
    },
    {
      "bufferView": 5,
      "byteOffset": 1296,
      "componentType": 5126,
      "count": 70,
      "max": [
        0.0,
        0.15147501230239868,
        0.0
      ],
      "min": [
        -3.1778628826141357,
        -0.75,
        0.0
      ],
      "type": "VEC3"
    },
    {
      "bufferView": 4,
      "byteOffset": 712,
      "componentType": 5126,
      "count": 70,
      "max": [
        5.0
      ],
      "min": [
        0.36666667461395264
      ],
      "type": "SCALAR"
    },
    {
      "bufferView": 5,
      "byteOffset": 2136,
      "componentType": 5126,
      "count": 70,
      "max": [
        0.0,
        0.15147501230239868,
        0.0
      ],
      "min": [
        -6.649892807006836,
        -0.75,
        0.0
      ],
      "type": "VEC3"
    },
    {
      "bufferView": 4,
      "byteOffset": 992,
      "componentType": 5126,
      "count": 71,
      "max": [
        5.0
      ],
      "min": [
        0.0
      ],
      "type": "SCALAR"
    },
    {
      "bufferView": 5,
      "byteOffset": 2976,
      "componentType": 5126,
      "count": 71,
      "max": [
        17.892580032348633,
        0.15147501230239868,
        0.0
      ],
      "min": [
        0.0,
        -0.75,
        0.0
      ],
      "type": "VEC3"
    },
    {
      "bufferView": 4,
      "byteOffset": 1276,
      "componentType": 5126,
      "count": 70,
      "max": [
        5.0
      ],
      "min": [
        0.5333333611488342
      ],
      "type": "SCALAR"
    },
    {
      "bufferView": 5,
      "byteOffset": 3828,
      "componentType": 5126,
      "count": 70,
      "max": [
        17.892578125,
        0.15147501230239868,
        0.0
      ],
      "min": [
        0.0,
        -0.75,
        0.0
      ],
      "type": "VEC3"
    },
    {
      "bufferView": 4,
      "byteOffset": 1556,
      "componentType": 5126,
      "count": 36,
      "max": [
        5.0
      ],
      "min": [
        0.36666667461395264
      ],
      "type": "SCALAR"
    },
    {
      "bufferView": 5,
      "byteOffset": 4668,
      "componentType": 5126,
      "count": 36,
      "max": [
        0.0,
        0.15147501230239868,
        0.0
      ],
      "min": [
        0.0,
        -0.75,
        0.0
      ],
      "type": "VEC3"
    },
    {
      "bufferView": 4,
      "byteOffset": 1700,
      "componentType": 5126,
      "count": 70,
      "max": [
        5.0
      ],
      "min": [
        0.36666667461395264
      ],
      "type": "SCALAR"
    },
    {
      "bufferView": 5,
      "byteOffset": 5100,
      "componentType": 5126,
      "count": 70,
      "max": [
        0.0,
        0.15147501230239868,
        0.0
      ],
      "min": [
        -6.649892807006836,
        -0.75,
        0.0
      ],
      "type": "VEC3"
    },
    {
      "bufferView": 4,
      "byteOffset": 1980,
      "componentType": 5126,
      "count": 36,
      "max": [
        5.0
      ],
      "min": [
        0.36666667461395264
      ],
      "type": "SCALAR"
    },
    {
      "bufferView": 5,
      "byteOffset": 5940,
      "componentType": 5126,
      "count": 36,
      "max": [
        0.0,
        0.15147501230239868,
        0.0
      ],
      "min": [
        0.0,
        -0.75,
        0.0
      ],
      "type": "VEC3"
    },
    {
      "bufferView": 4,
      "byteOffset": 2124,
      "componentType": 5126,
      "count": 36,
      "max": [
        5.0
      ],
      "min": [
        0.36666667461395264
      ],
      "type": "SCALAR"
    },
    {
      "bufferView": 5,
      "byteOffset": 6372,
      "componentType": 5126,
      "count": 36,
      "max": [
        0.0,
        0.15147501230239868,
        0.0
      ],
      "min": [
        0.0,
        -0.75,
        0.0
      ],
      "type": "VEC3"
    },
    {
      "bufferView": 4,
      "byteOffset": 2268,
      "componentType": 5126,
      "count": 70,
      "max": [
        5.0
      ],
      "min": [
        0.36666667461395264
      ],
      "type": "SCALAR"
    },
    {
      "bufferView": 5,
      "byteOffset": 6804,
      "componentType": 5126,
      "count": 70,
      "max": [
        0.0,
        0.15147501230239868,
        0.0
      ],
      "min": [
        -6.649892807006836,
        -0.75,
        0.0
      ],
      "type": "VEC3"
    },
    {
      "bufferView": 4,
      "byteOffset": 2548,
      "componentType": 5126,
      "count": 36,
      "max": [
        5.0
      ],
      "min": [
        0.0
      ],
      "type": "SCALAR"
    },
    {
      "bufferView": 5,
      "byteOffset": 7644,
      "componentType": 5126,
      "count": 36,
      "max": [
        7.02266263961792,
        43.891788482666016,
        0.11634187400341034
      ],
      "min": [
        7.02266263961792,
        42.99031448364258,
        0.11634187400341034
      ],
      "type": "VEC3"
    },
    {
      "bufferView": 4,
      "byteOffset": 2692,
      "componentType": 5126,
      "count": 18,
      "max": [
        5.0
      ],
      "min": [
        0.0
      ],
      "type": "SCALAR"
    },
    {
      "bufferView": 6,
      "componentType": 5126,
      "count": 18,
      "max": [
        -0.6644630432128906,
        0.24184481799602509,
        -2.107342389479072e-08,
        0.7071067690849304
      ],
      "min": [
        -0.7071068286895752,
        2.107342567114756e-08,
        -0.2418448030948639,
        0.6644629836082458
      ],
      "type": "VEC4"
    },
    {
      "bufferView": 4,
      "byteOffset": 2764,
      "componentType": 5126,
      "count": 36,
      "max": [
        5.0
      ],
      "min": [
        0.36666667461395264
      ],
      "type": "SCALAR"
    },
    {
      "bufferView": 5,
      "byteOffset": 8076,
      "componentType": 5126,
      "count": 36,
      "max": [
        0.0,
        0.15147501230239868,
        0.0
      ],
      "min": [
        0.0,
        -0.75,
        0.0
      ],
      "type": "VEC3"
    },
    {
      "bufferView": 4,
      "byteOffset": 2908,
      "componentType": 5126,
      "count": 36,
      "max": [
        5.0
      ],
      "min": [
        0.36666667461395264
      ],
      "type": "SCALAR"
    },
    {
      "bufferView": 5,
      "byteOffset": 8508,
      "componentType": 5126,
      "count": 36,
      "max": [
        0.0,
        0.15147501230239868,
        0.0
      ],
      "min": [
        0.0,
        -0.75,
        0.0
      ],
      "type": "VEC3"
    },
    {
      "bufferView": 4,
      "byteOffset": 3052,
      "componentType": 5126,
      "count": 36,
      "max": [
        5.0
      ],
      "min": [
        0.36666667461395264
      ],
      "type": "SCALAR"
    },
    {
      "bufferView": 5,
      "byteOffset": 8940,
      "componentType": 5126,
      "count": 36,
      "max": [
        0.0,
        0.15147501230239868,
        0.0
      ],
      "min": [
        0.0,
        -0.75,
        0.0
      ],
      "type": "VEC3"
    },
    {
      "bufferView": 4,
      "byteOffset": 3196,
      "componentType": 5126,
      "count": 36,
      "max": [
        5.0
      ],
      "min": [
        0.36666667461395264
      ],
      "type": "SCALAR"
    },
    {
      "bufferView": 5,
      "byteOffset": 9372,
      "componentType": 5126,
      "count": 36,
      "max": [
        0.0,
        0.15147501230239868,
        0.0
      ],
      "min": [
        0.0,
        -0.75,
        0.0
      ],
      "type": "VEC3"
    },
    {
      "bufferView": 4,
      "byteOffset": 3340,
      "componentType": 5126,
      "count": 36,
      "max": [
        5.0
      ],
      "min": [
        0.36666667461395264
      ],
      "type": "SCALAR"
    },
    {
      "bufferView": 5,
      "byteOffset": 9804,
      "componentType": 5126,
      "count": 36,
      "max": [
        0.0,
        0.15147501230239868,
        0.0
      ],
      "min": [
        0.0,
        -0.75,
        0.0
      ],
      "type": "VEC3"
    },
    {
      "bufferView": 4,
      "byteOffset": 3484,
      "componentType": 5126,
      "count": 71,
      "max": [
        5.0
      ],
      "min": [
        0.0
      ],
      "type": "SCALAR"
    },
    {
      "bufferView": 5,
      "byteOffset": 10236,
      "componentType": 5126,
      "count": 71,
      "max": [
        17.892580032348633,
        0.15147501230239868,
        0.0
      ],
      "min": [
        0.0,
        -0.75,
        0.0
      ],
      "type": "VEC3"
    },
    {
      "bufferView": 4,
      "byteOffset": 3768,
      "componentType": 5126,
      "count": 70,
      "max": [
        5.0
      ],
      "min": [
        0.5333333611488342
      ],
      "type": "SCALAR"
    },
    {
      "bufferView": 5,
      "byteOffset": 11088,
      "componentType": 5126,
      "count": 70,
      "max": [
        17.892578125,
        0.15147501230239868,
        0.0
      ],
      "min": [
        0.0,
        -0.75,
        0.0
      ],
      "type": "VEC3"
    },
    {
      "bufferView": 4,
      "byteOffset": 4048,
      "componentType": 5126,
      "count": 36,
      "max": [
        5.0
      ],
      "min": [
        0.36666667461395264
      ],
      "type": "SCALAR"
    },
    {
      "bufferView": 5,
      "byteOffset": 11928,
      "componentType": 5126,
      "count": 36,
      "max": [
        0.0,
        0.15147501230239868,
        0.0
      ],
      "min": [
        0.0,
        -0.75,
        0.0
      ],
      "type": "VEC3"
    },
    {
      "bufferView": 4,
      "byteOffset": 4192,
      "componentType": 5126,
      "count": 36,
      "max": [
        5.0
      ],
      "min": [
        0.36666667461395264
      ],
      "type": "SCALAR"
    },
    {
      "bufferView": 5,
      "byteOffset": 12360,
      "componentType": 5126,
      "count": 36,
      "max": [
        -34.43019485473633,
        36.58786392211914,
        0.11634528636932373
      ],
      "min": [
        -34.43019485473633,
        35.68638610839844,
        0.11634528636932373
      ],
      "type": "VEC3"
    },
    {
      "bufferView": 4,
      "byteOffset": 4336,
      "componentType": 5126,
      "count": 109,
      "max": [
        5.0
      ],
      "min": [
        0.36666667461395264
      ],
      "type": "SCALAR"
    },
    {
      "bufferView": 6,
      "byteOffset": 288,
      "componentType": 5126,
      "count": 109,
      "max": [
        0.4942835569381714,
        0.707106351852417,
        0.6728826761245728,
        0.7071067690849304
      ],
      "min": [
        -0.7071067690849304,
        -0.6728826761245728,
        -0.707106351852417,
        -0.4942835569381714
      ],
      "type": "VEC4"
    }
  ],
  "animations": [
    {
      "channels": [
        {
          "sampler": 0,
          "target": {
            "node": 4,
            "path": "translation"
          }
        },
        {
          "sampler": 1,
          "target": {
            "node": 7,
            "path": "translation"
          }
        },
        {
          "sampler": 2,
          "target": {
            "node": 10,
            "path": "translation"
          }
        },
        {
          "sampler": 3,
          "target": {
            "node": 13,
            "path": "translation"
          }
        },
        {
          "sampler": 4,
          "target": {
            "node": 16,
            "path": "translation"
          }
        },
        {
          "sampler": 5,
          "target": {
            "node": 19,
            "path": "translation"
          }
        },
        {
          "sampler": 6,
          "target": {
            "node": 22,
            "path": "translation"
          }
        },
        {
          "sampler": 7,
          "target": {
            "node": 25,
            "path": "translation"
          }
        },
        {
          "sampler": 8,
          "target": {
            "node": 28,
            "path": "translation"
          }
        },
        {
          "sampler": 9,
          "target": {
            "node": 31,
            "path": "translation"
          }
        },
        {
          "sampler": 10,
          "target": {
            "node": 34,
            "path": "translation"
          }
        },
        {
          "sampler": 11,
          "target": {
            "node": 37,
            "path": "translation"
          }
        },
        {
          "sampler": 12,
          "target": {
            "node": 40,
            "path": "translation"
          }
        },
        {
          "sampler": 13,
          "target": {
            "node": 40,
            "path": "rotation"
          }
        },
        {
          "sampler": 14,
          "target": {
            "node": 43,
            "path": "translation"
          }
        },
        {
          "sampler": 15,
          "target": {
            "node": 46,
            "path": "translation"
          }
        },
        {
          "sampler": 16,
          "target": {
            "node": 49,
            "path": "translation"
          }
        },
        {
          "sampler": 17,
          "target": {
            "node": 52,
            "path": "translation"
          }
        },
        {
          "sampler": 18,
          "target": {
            "node": 55,
            "path": "translation"
          }
        },
        {
          "sampler": 19,
          "target": {
            "node": 58,
            "path": "translation"
          }
        },
        {
          "sampler": 20,
          "target": {
            "node": 61,
            "path": "translation"
          }
        },
        {
          "sampler": 21,
          "target": {
            "node": 64,
            "path": "translation"
          }
        },
        {
          "sampler": 22,
          "target": {
            "node": 67,
            "path": "translation"
          }
        },
        {
          "sampler": 23,
          "target": {
            "node": 67,
            "path": "rotation"
          }
        }
      ],
      "name": "Loop",
      "samplers": [
        {
          "input": 110,
          "interpolation": "LINEAR",
          "output": 111
        },
        {
          "input": 112,
          "interpolation": "LINEAR",
          "output": 113
        },
        {
          "input": 114,
          "interpolation": "LINEAR",
          "output": 115
        },
        {
          "input": 116,
          "interpolation": "LINEAR",
          "output": 117
        },
        {
          "input": 118,
          "interpolation": "LINEAR",
          "output": 119
        },
        {
          "input": 120,
          "interpolation": "LINEAR",
          "output": 121
        },
        {
          "input": 122,
          "interpolation": "LINEAR",
          "output": 123
        },
        {
          "input": 124,
          "interpolation": "LINEAR",
          "output": 125
        },
        {
          "input": 126,
          "interpolation": "LINEAR",
          "output": 127
        },
        {
          "input": 128,
          "interpolation": "LINEAR",
          "output": 129
        },
        {
          "input": 130,
          "interpolation": "LINEAR",
          "output": 131
        },
        {
          "input": 132,
          "interpolation": "LINEAR",
          "output": 133
        },
        {
          "input": 134,
          "interpolation": "LINEAR",
          "output": 135
        },
        {
          "input": 136,
          "interpolation": "LINEAR",
          "output": 137
        },
        {
          "input": 138,
          "interpolation": "LINEAR",
          "output": 139
        },
        {
          "input": 140,
          "interpolation": "LINEAR",
          "output": 141
        },
        {
          "input": 142,
          "interpolation": "LINEAR",
          "output": 143
        },
        {
          "input": 144,
          "interpolation": "LINEAR",
          "output": 145
        },
        {
          "input": 146,
          "interpolation": "LINEAR",
          "output": 147
        },
        {
          "input": 148,
          "interpolation": "LINEAR",
          "output": 149
        },
        {
          "input": 150,
          "interpolation": "LINEAR",
          "output": 151
        },
        {
          "input": 152,
          "interpolation": "LINEAR",
          "output": 153
        },
        {
          "input": 154,
          "interpolation": "LINEAR",
          "output": 155
        },
        {
          "input": 156,
          "interpolation": "LINEAR",
          "output": 157
        }
      ]
    }
  ],
  "asset": {
    "extras": {
      "author": "Chaise (https://sketchfab.com/masterchaise)",
      "license": "CC-BY-4.0 (http://creativecommons.org/licenses/by/4.0/)",
      "source": "https://sketchfab.com/3d-models/saw-gun-0b22beea8a3b40939b9f9d1ece2ad2cb",
      "title": "SAW-GUN"
    },
    "generator": "Sketchfab-16.99.0",
    "version": "2.0"
  },
  "bufferViews": [
    {
      "buffer": 0,
      "byteLength": 23472,
      "name": "floatBufferViews",
      "target": 34963
    },
    {
      "buffer": 0,
      "byteLength": 13840,
      "byteOffset": 23472,
      "byteStride": 8,
      "name": "floatBufferViews",
      "target": 34962
    },
    {
      "buffer": 0,
      "byteLength": 41520,
      "byteOffset": 37312,
      "byteStride": 12,
      "name": "floatBufferViews",
      "target": 34962
    },
    {
      "buffer": 0,
      "byteLength": 27680,
      "byteOffset": 78832,
      "byteStride": 16,
      "name": "floatBufferViews",
      "target": 34962
    },
    {
      "buffer": 0,
      "byteLength": 4772,
      "byteOffset": 106512,
      "name": "floatBufferViews"
    },
    {
      "buffer": 0,
      "byteLength": 12792,
      "byteOffset": 111284,
      "byteStride": 12,
      "name": "floatBufferViews"
    },
    {
      "buffer": 0,
      "byteLength": 2032,
      "byteOffset": 124076,
      "byteStride": 16,
      "name": "floatBufferViews"
    }
  ],
  "buffers": [
    {
      "byteLength": 126108,
      "uri": "scene.bin"
    }
  ],
  "images": [
    {
      "uri": "textures/Scene_-_Root_baseColor.png"
    },
    {
      "uri": "textures/Scene_-_Root_metallicRoughness.png"
    },
    {
      "uri": "textures/Scene_-_Root_emissive.png"
    },
    {
      "uri": "textures/Scene_-_Root_normal.png"
    }
  ],
  "materials": [
    {
      "doubleSided": true,
      "emissiveFactor": [
        1.0,
        1.0,
        1.0
      ],
      "emissiveTexture": {
        "index": 2
      },
      "name": "Scene_-_Root",
      "normalTexture": {
        "index": 3
      },
      "occlusionTexture": {
        "index": 1
      },
      "pbrMetallicRoughness": {
        "baseColorTexture": {
          "index": 0
        },
        "metallicRoughnessTexture": {
          "index": 1
        }
      }
    }
  ],
  "meshes": [
    {
      "name": "ammo.l_low003__0",
      "primitives": [
        {
          "attributes": {
            "NORMAL": 1,
            "POSITION": 0,
            "TANGENT": 2,
            "TEXCOORD_0": 3
          },
          "indices": 4,
          "material": 0,
          "mode": 4
        }
      ]
    },
    {
      "name": "ammo.r_low003__0",
      "primitives": [
        {
          "attributes": {
            "NORMAL": 6,
            "POSITION": 5,
            "TANGENT": 7,
            "TEXCOORD_0": 8
          },
          "indices": 9,
          "material": 0,
          "mode": 4
        }
      ]
    },
    {
      "name": "arm_01_low003__0",
      "primitives": [
        {
          "attributes": {
            "NORMAL": 11,
            "POSITION": 10,
            "TANGENT": 12,
            "TEXCOORD_0": 13
          },
          "indices": 14,
          "material": 0,
          "mode": 4
        }
      ]
    },
    {
      "name": "arm_02_low003__0",
      "primitives": [
        {
          "attributes": {
            "NORMAL": 16,
            "POSITION": 15,
            "TANGENT": 17,
            "TEXCOORD_0": 18
          },
          "indices": 19,
          "material": 0,
          "mode": 4
        }
      ]
    },
    {
      "name": "arm_03_low003__0",
      "primitives": [
        {
          "attributes": {
            "NORMAL": 21,
            "POSITION": 20,
            "TANGENT": 22,
            "TEXCOORD_0": 23
          },
          "indices": 24,
          "material": 0,
          "mode": 4
        }
      ]
    },
    {
      "name": "barrel.l_low003__0",
      "primitives": [
        {
          "attributes": {
            "NORMAL": 26,
            "POSITION": 25,
            "TANGENT": 27,
            "TEXCOORD_0": 28
          },
          "indices": 29,
          "material": 0,
          "mode": 4
        }
      ]
    },
    {
      "name": "barrel.r_low003__0",
      "primitives": [
        {
          "attributes": {
            "NORMAL": 31,
            "POSITION": 30,
            "TANGENT": 32,
            "TEXCOORD_0": 33
          },
          "indices": 34,
          "material": 0,
          "mode": 4
        }
      ]
    },
    {
      "name": "base_low003__0",
      "primitives": [
        {
          "attributes": {
            "NORMAL": 36,
            "POSITION": 35,
            "TANGENT": 37,
            "TEXCOORD_0": 38
          },
          "indices": 39,
          "material": 0,
          "mode": 4
        }
      ]
    },
    {
      "name": "button_low001__0",
      "primitives": [
        {
          "attributes": {
            "NORMAL": 41,
            "POSITION": 40,
            "TANGENT": 42,
            "TEXCOORD_0": 43
          },
          "indices": 44,
          "material": 0,
          "mode": 4
        }
      ]
    },
    {
      "name": "extractor.l_low003__0",
      "primitives": [
        {
          "attributes": {
            "NORMAL": 46,
            "POSITION": 45,
            "TANGENT": 47,
            "TEXCOORD_0": 48
          },
          "indices": 49,
          "material": 0,
          "mode": 4
        }
      ]
    },
    {
      "name": "extractor.r_low003__0",
      "primitives": [
        {
          "attributes": {
            "NORMAL": 51,
            "POSITION": 50,
            "TANGENT": 52,
            "TEXCOORD_0": 53
          },
          "indices": 54,
          "material": 0,
          "mode": 4
        }
      ]
    },
    {
      "name": "handle_01_low003__0",
      "primitives": [
        {
          "attributes": {
            "NORMAL": 56,
            "POSITION": 55,
            "TANGENT": 57,
            "TEXCOORD_0": 58
          },
          "indices": 59,
          "material": 0,
          "mode": 4
        }
      ]
    },
    {
      "name": "handle_02_low003__0",
      "primitives": [
        {
          "attributes": {
            "NORMAL": 61,
            "POSITION": 60,
            "TANGENT": 62,
            "TEXCOORD_0": 63
          },
          "indices": 64,
          "material": 0,
          "mode": 4
        }
      ]
    },
    {
      "name": "hook_low003__0",
      "primitives": [
        {
          "attributes": {
            "NORMAL": 66,
            "POSITION": 65,
            "TANGENT": 67,
            "TEXCOORD_0": 68
          },
          "indices": 69,
          "material": 0,
          "mode": 4
        }
      ]
    },
    {
      "name": "magazine_in.l_low003__0",
      "primitives": [
        {
          "attributes": {
            "NORMAL": 71,
            "POSITION": 70,
            "TANGENT": 72,
            "TEXCOORD_0": 73
          },
          "indices": 74,
          "material": 0,
          "mode": 4
        }
      ]
    },
    {
      "name": "magazine_in.r_low003__0",
      "primitives": [
        {
          "attributes": {
            "NORMAL": 76,
            "POSITION": 75,
            "TANGENT": 77,
            "TEXCOORD_0": 78
          },
          "indices": 79,
          "material": 0,
          "mode": 4
        }
      ]
    },
    {
      "name": "magazine_low003__0",
      "primitives": [
        {
          "attributes": {
            "NORMAL": 81,
            "POSITION": 80,
            "TANGENT": 82,
            "TEXCOORD_0": 83
          },
          "indices": 84,
          "material": 0,
          "mode": 4
        }
      ]
    },
    {
      "name": "magazine_out_low003__0",
      "primitives": [
        {
          "attributes": {
            "NORMAL": 86,
            "POSITION": 85,
            "TANGENT": 87,
            "TEXCOORD_0": 88
          },
          "indices": 89,
          "material": 0,
          "mode": 4
        }
      ]
    },
    {
      "name": "muzzle.l_low003__0",
      "primitives": [
        {
          "attributes": {
            "NORMAL": 91,
            "POSITION": 90,
            "TANGENT": 92,
            "TEXCOORD_0": 93
          },
          "indices": 94,
          "material": 0,
          "mode": 4
        }
      ]
    },
    {
      "name": "muzzle.r_low003__0",
      "primitives": [
        {
          "attributes": {
            "NORMAL": 96,
            "POSITION": 95,
            "TANGENT": 97,
            "TEXCOORD_0": 98
          },
          "indices": 99,
          "material": 0,
          "mode": 4
        }
      ]
    },
    {
      "name": "saw_arm_low003__0",
      "primitives": [
        {
          "attributes": {
            "NORMAL": 101,
            "POSITION": 100,
            "TANGENT": 102,
            "TEXCOORD_0": 103
          },
          "indices": 104,
          "material": 0,
          "mode": 4
        }
      ]
    },
    {
      "name": "saw_low003__0",
      "primitives": [
        {
          "attributes": {
            "NORMAL": 106,
            "POSITION": 105,
            "TANGENT": 107,
            "TEXCOORD_0": 108
          },
          "indices": 109,
          "material": 0,
          "mode": 4
        }
      ]
    }
  ],
  "nodes": [
    {
      "children": [
        1
      ],
      "matrix": [
        1.0,
        0.0,
        0.0,
        0.0,
        0.0,
        2.220446049250313e-16,
        -1.0,
        0.0,
        0.0,
        1.0,
        2.220446049250313e-16,
        0.0,
        0.0,
        0.0,
        0.0,
        1.0
      ],
      "name": "Sketchfab_model"
    },
    {
      "children": [
        2
      ],
      "matrix": [
        0.009999999776482582,
        0.0,
        0.0,
        0.0,
        0.0,
        0.0,
        0.009999999776482582,
        0.0,
        0.0,
        -0.009999999776482582,
        0.0,
        0.0,
        0.0,
        0.0,
        0.0,
        1.0
      ],
      "name": "18aa7827e4cd47fe927dffdaf8e41ee6.fbx"
    },
    {
      "children": [
        3
      ],
      "name": "Object_2"
    },
    {
      "children": [
        4,
        7,
        10,
        13,
        16,
        19,
        22,
        25,
        28,
        31,
        34,
        37,
        40,
        43,
        46,
        49,
        52,
        55,
        58,
        61,
        64,
        67
      ],
      "name": "RootNode"
    },
    {
      "children": [
        5
      ],
      "name": "ammo.l_low003",
      "rotation": [
        -0.7071068286895752,
        -0.0,
        0.0,
        0.7071068286895752
      ]
    },
    {
      "children": [
        6
      ],
      "matrix": [
        1.0,
        -0.0,
        0.0,
        0.0,
        0.0,
        6.123233995736766e-17,
        1.0,
        0.0,
        -0.0,
        -1.0,
        6.123233995736766e-17,
        0.0,
        23.988712310791016,
        -2.308037757873535,
        24.665603637695313,
        1.0
      ],
      "name": "Object_5"
    },
    {
      "mesh": 0,
      "name": "ammo.l_low003__0"
    },
    {
      "children": [
        8
      ],
      "name": "ammo.r_low003",
      "rotation": [
        -0.7071068286895752,
        -0.0,
        0.0,
        0.7071068286895752
      ]
    },
    {
      "children": [
        9
      ],
      "matrix": [
        1.0,
        -0.0,
        0.0,
        0.0,
        0.0,
        6.123233995736766e-17,
        1.0,
        0.0,
        -0.0,
        -1.0,
        6.123233995736766e-17,
        0.0,
        23.988712310791016,
        -2.308037757873535,
        24.665603637695313,
        1.0
      ],
      "name": "Object_8"
    },
    {
      "mesh": 1,
      "name": "ammo.r_low003__0"
    },
    {
      "children": [
        11
      ],
      "name": "arm_01_low003",
      "rotation": [
        -0.7071068286895752,
        -0.0,
        0.0,
        0.7071068286895752
      ]
    },
    {
      "children": [
        12
      ],
      "matrix": [
        6.123233995736766e-17,
        0.0,
        -1.0,
        0.0,
        -0.0,
        1.0,
        -0.0,
        0.0,
        1.0,
        0.0,
        6.123233995736766e-17,
        0.0,
        16.165904998779297,
        -0.1163473129272461,
        27.170276641845703,
        1.0
      ],
      "name": "Object_11"
    },
    {
      "mesh": 2,
      "name": "arm_01_low003__0"
    },
    {
      "children": [
        14
      ],
      "name": "arm_02_low003",
      "rotation": [
        -0.7071068286895752,
        -0.0,
        0.0,
        0.7071068286895752
      ]
    },
    {
      "children": [
        15
      ],
      "matrix": [
        6.123233995736766e-17,
        0.0,
        -1.0,
        0.0,
        -0.0,
        1.0,
        -0.0,
        0.0,
        1.0,
        0.0,
        6.123233995736766e-17,
        0.0,
        28.201353073120117,
        -0.1163473129272461,
        27.170278549194336,
        1.0
      ],
      "name": "Object_14"
    },
    {
      "mesh": 3,
      "name": "arm_02_low003__0"
    },
    {
      "children": [
        17
      ],
      "name": "arm_03_low003",
      "rotation": [
        -0.7071068286895752,
        -0.0,
        0.0,
        0.7071068286895752
      ]
    },
    {
      "children": [
        18
      ],
      "matrix": [
        1.0,
        -0.0,
        0.0,
        0.0,
        0.0,
        6.123233995736766e-17,
        1.0,
        0.0,
        -0.0,
        -1.0,
        6.123233995736766e-17,
        0.0,
        40.01390838623047,
        6.850637912750244,
        29.023406982421875,
        1.0
      ],
      "name": "Object_17"
    },
    {
      "mesh": 4,
      "name": "arm_03_low003__0"
    },
    {
      "children": [
        20
      ],
      "name": "barrel.l_low003",
      "rotation": [
        -0.7071068286895752,
        1.5700926700408036e-15,
        1.5700926700408036e-15,
        0.7071068286895752
      ]
    },
    {
      "children": [
        21
      ],
      "matrix": [
        6.123233995736766e-17,
        0.0,
        1.0,
        0.0,
        -8.881782763191149e-15,
        1.0,
        5.4385234158320875e-31,
        0.0,
        -1.0,
        -8.881782763191149e-15,
        6.123233995736766e-17,
        0.0,
        -21.72430419921875,
        -10.946830749511719,
        33.117767333984375,
        1.0
      ],
      "name": "Object_20"
    },
    {
      "mesh": 5,
      "name": "barrel.l_low003__0"
    },
    {
      "children": [
        23
      ],
      "name": "barrel.r_low003",
      "rotation": [
        -0.7071068286895752,
        1.5700926700408036e-15,
        1.5700926700408036e-15,
        0.7071068286895752
      ]
    },
    {
      "children": [
        24
      ],
      "matrix": [
        6.123233995736766e-17,
        0.0,
        1.0,
        0.0,
        -8.881782763191149e-15,
        1.0,
        5.4385234158320875e-31,
        0.0,
        -1.0,
        -8.881782763191149e-15,
        6.123233995736766e-17,
        0.0,
        -21.72430419921875,
        -10.946830749511719,
        33.117767333984375,
        1.0
      ],
      "name": "Object_23"
    },
    {
      "mesh": 6,
      "name": "barrel.r_low003__0"
    },
    {
      "children": [
        26
      ],
      "name": "base_low003",
      "rotation": [
        -0.7071068286895752,
        -0.0,
        0.0,
        0.7071068286895752
      ]
    },
    {
      "children": [
        27
      ],
      "matrix": [
        1.0,
        0.0,
        -0.0,
        0.0,
        0.0,
        1.0,
        0.0,
        0.0,
        0.0,
        0.0,
        1.0,
        0.0,
        -3.059455394744873,
        -0.11634445190429688,
        23.0283203125,
        1.0
      ],
      "name": "Object_26"
    },
    {
      "mesh": 7,
      "name": "base_low003__0"
    },
    {
      "children": [
        29
      ],
      "name": "button_low001",
      "rotation": [
        -0.7071068286895752,
        -0.0,
        0.0,
        0.7071068286895752
      ]
    },
    {
      "children": [
        30
      ],
      "matrix": [
        0.8314696123025452,
        0.0,
        -0.5555702330196022,
        0.0,
        0.5555702330196022,
        6.123233995736766e-17,
        0.8314696123025452,
        0.0,
        3.401886537845025e-17,
        -1.0,
        5.091282996473014e-17,
        0.0,
        37.95503616333008,
        0.4136545658111572,
        40.56580352783203,
        1.0
      ],
      "name": "Object_29"
    },
    {
      "mesh": 8,
      "name": "button_low001__0"
    },
    {
      "children": [
        32
      ],
      "name": "extractor.l_low003",
      "rotation": [
        -0.7071068286895752,
        1.5700926700408036e-15,
        1.5700926700408036e-15,
        0.7071068286895752
      ]
    },
    {
      "children": [
        33
      ],
      "matrix": [
        6.123233995736766e-17,
        0.0,
        1.0,
        0.0,
        -8.881782763191149e-15,
        1.0,
        5.4385234158320875e-31,
        0.0,
        -1.0,
        -8.881782763191149e-15,
        6.123233995736766e-17,
        0.0,
        -10.256818771362305,
        -10.946832656860352,
        33.132598876953125,
        1.0
      ],
      "name": "Object_32"
    },
    {
      "mesh": 9,
      "name": "extractor.l_low003__0"
    },
    {
      "children": [
        35
      ],
      "name": "extractor.r_low003",
      "rotation": [
        -0.7071068286895752,
        1.5700926700408036e-15,
        1.5700926700408036e-15,
        0.7071068286895752
      ]
    },
    {
      "children": [
        36
      ],
      "matrix": [
        6.123233995736766e-17,
        0.0,
        1.0,
        0.0,
        -8.881782763191149e-15,
        1.0,
        5.4385234158320875e-31,
        0.0,
        -1.0,
        -8.881782763191149e-15,
        6.123233995736766e-17,
        0.0,
        -10.256818771362305,
        -10.946832656860352,
        33.132598876953125,
        1.0
      ],
      "name": "Object_35"
    },
    {
      "mesh": 10,
      "name": "extractor.r_low003__0"
    },
    {
      "children": [
        38
      ],
      "name": "handle_01_low003",
      "rotation": [
        -0.7071068286895752,
        -0.0,
        0.0,
        0.7071068286895752
      ]
    },
    {
      "children": [
        39
      ],
      "matrix": [
        1.0,
        -0.0,
        0.0,
        0.0,
        0.0,
        6.123233995736766e-17,
        1.0,
        0.0,
        -0.0,
        -1.0,
        6.123233995736766e-17,
        0.0,
        39.32432174682617,
        11.80207633972168,
        38.98268127441406,
        1.0
      ],
      "name": "Object_38"
    },
    {
      "mesh": 11,
      "name": "handle_01_low003__0"
    },
    {
      "children": [
        41
      ],
      "name": "handle_02_low003",
      "rotation": [
        -0.7071068286895752,
        2.107342567114756e-08,
        -2.107342389479072e-08,
        0.7071067690849304
      ],
      "translation": [
        7.02266263961792,
        43.74031448364258,
        0.11634187400341034
      ]
    },
    {
      "children": [
        42
      ],
      "matrix": [
        -1.3315805442188116e-07,
        -0.9999999999999911,
        -1.2246467991473532e-16,
        0.0,
        -1.3315805442188e-07,
        1.7608602777505934e-14,
        0.9999999999999911,
        0.0,
        -0.9999999999999822,
        1.3315805442188e-07,
        -1.3315805442188116e-07,
        0.0,
        -2.632669975355384e-06,
        1.9855065147567075e-07,
        2.287120819091797,
        1.0
      ],
      "name": "Object_41"
    },
    {
      "mesh": 12,
      "name": "handle_02_low003__0"
    },
    {
      "children": [
        44
      ],
      "name": "hook_low003",
      "rotation": [
        -0.7071068286895752,
        -0.0,
        0.0,
        0.7071068286895752
      ]
    },
    {
      "children": [
        45
      ],
      "matrix": [
        1.0,
        -0.0,
        0.0,
        0.0,
        0.0,
        6.123233995736766e-17,
        1.0,
        0.0,
        -0.0,
        -1.0,
        6.123233995736766e-17,
        0.0,
        3.9439697265625,
        7.7945051193237305,
        24.47460174560547,
        1.0
      ],
      "name": "Object_44"
    },
    {
      "mesh": 13,
      "name": "hook_low003__0"
    },
    {
      "children": [
        47
      ],
      "name": "magazine_in.l_low003",
      "rotation": [
        -0.7071068286895752,
        6.585445522233613e-10,
        6.585445522233613e-10,
        0.7071068286895752
      ]
    },
    {
      "children": [
        48
      ],
      "matrix": [
        0.9447603315778725,
        0.05792576404393562,
        -0.3226027305166447,
        0.0,
        -0.0013190255996445854,
        0.9849231248307988,
        0.17298756702434467,
        0.0,
        0.3277593264093885,
        -0.1630062699207026,
        0.9305927035595127,
        0.0,
        2.48386549949646,
        -12.938090324401855,
        37.42227554321289,
        1.0
      ],
      "name": "Object_47"
    },
    {
      "mesh": 14,
      "name": "magazine_in.l_low003__0"
    },
    {
      "children": [
        50
      ],
      "name": "magazine_in.r_low003",
      "rotation": [
        -0.7071068286895752,
        6.585445522233613e-10,
        6.585445522233613e-10,
        0.7071068286895752
      ]
    },
    {
      "children": [
        51
      ],
      "matrix": [
        0.9447603315778725,
        0.05792576404393562,
        -0.3226027305166447,
        0.0,
        -0.0013190255996445854,
        0.9849231248307988,
        0.17298756702434467,
        0.0,
        0.3277593264093885,
        -0.1630062699207026,
        0.9305927035595127,
        0.0,
        2.48386549949646,
        -12.938090324401855,
        37.42227554321289,
        1.0
      ],
      "name": "Object_50"
    },
    {
      "mesh": 15,
      "name": "magazine_in.r_low003__0"
    },
    {
      "children": [
        53
      ],
      "name": "magazine_low003",
      "rotation": [
        -0.7071068286895752,
        -0.0,
        0.0,
        0.7071068286895752
      ]
    },
    {
      "children": [
        54
      ],
      "matrix": [
        1.0,
        0.0,
        -0.0,
        0.0,
        0.0,
        1.0,
        0.0,
        0.0,
        0.0,
        0.0,
        1.0,
        0.0,
        -6.829986572265625,
        -0.11634445190429688,
        15.179367065429688,
        1.0
      ],
      "name": "Object_53"
    },
    {
      "mesh": 16,
      "name": "magazine_low003__0"
    },
    {
      "children": [
        56
      ],
      "name": "magazine_out_low003",
      "rotation": [
        -0.7071068286895752,
        -0.0,
        0.0,
        0.7071068286895752
      ]
    },
    {
      "children": [
        57
      ],
      "matrix": [
        -1.3315805442188116e-07,
        0.9999999999999911,
        -1.2246467991473532e-16,
        0.0,
        6.12323236502086e-17,
        1.2246468806831348e-16,
        1.0,
        0.0,
        0.9999999999999911,
        1.3315805442188116e-07,
        -6.123233995736766e-17,
        0.0,
        13.971709251403809,
        -0.11634242534637451,
        9.843069076538086,
        1.0
      ],
      "name": "Object_56"
    },
    {
      "mesh": 17,
      "name": "magazine_out_low003__0"
    },
    {
      "children": [
        59
      ],
      "name": "muzzle.l_low003",
      "rotation": [
        -0.7071068286895752,
        -6.181724643283815e-08,
        6.181723222198343e-08,
        0.7071067094802856
      ]
    },
    {
      "children": [
        60
      ],
      "matrix": [
        6.123233995736766e-17,
        0.0,
        -1.0,
        0.0,
        -4.440893333019396e-16,
        1.0,
        -2.7192629028185125e-32,
        0.0,
        1.0,
        4.440893333019396e-16,
        6.123233995736766e-17,
        0.0,
        -54.574607849121094,
        -10.946832656860352,
        33.132606506347656,
        1.0
      ],
      "name": "Object_59"
    },
    {
      "mesh": 18,
      "name": "muzzle.l_low003__0"
    },
    {
      "children": [
        62
      ],
      "name": "muzzle.r_low003",
      "rotation": [
        -0.7071068286895752,
        -0.0,
        0.0,
        0.7071068286895752
      ]
    },
    {
      "children": [
        63
      ],
      "matrix": [
        6.123233995736766e-17,
        0.0,
        -1.0,
        0.0,
        -4.440893333019396e-16,
        1.0,
        -2.7192629028185125e-32,
        0.0,
        1.0,
        4.440893333019396e-16,
        6.123233995736766e-17,
        0.0,
        -54.574607849121094,
        -10.946832656860352,
        33.132606506347656,
        1.0
      ],
      "name": "Object_62"
    },
    {
      "mesh": 19,
      "name": "muzzle.r_low003__0"
    },
    {
      "children": [
        65
      ],
      "name": "saw_arm_low003",
      "rotation": [
        -0.7071068286895752,
        -5.26835641778689e-09,
        5.26835641778689e-09,
        0.7071068286895752
      ]
    },
    {
      "children": [
        66
      ],
      "matrix": [
        0.9848077472315442,
        -0.0,
        -0.17364821045070136,
        0.0,
        0.0,
        1.0,
        -0.0,
        0.0,
        0.17364821045070136,
        0.0,
        0.9848077472315442,
        0.0,
        -24.675582885742188,
        -0.11634445190429688,
        31.904829025268555,
        1.0
      ],
      "name": "Object_65"
    },
    {
      "mesh": 20,
      "name": "saw_arm_low003__0"
    },
    {
      "children": [
        68
      ],
      "name": "saw_low003",
      "rotation": [
        -0.7071068286895752,
        -0.0,
        0.0,
        0.7071068286895752
      ],
      "translation": [
        -34.43019485473633,
        36.43638610839844,
        0.11634528636932373
      ]
    },
    {
      "children": [
        69
      ],
      "matrix": [
        1.0,
        0.0,
        -0.0,
        0.0,
        0.0,
        1.0,
        0.0,
        0.0,
        0.0,
        0.0,
        1.0,
        0.0,
        0.0,
        0.5412691831588745,
        0.0,
        1.0
      ],
      "name": "Object_68"
    },
    {
      "mesh": 21,
      "name": "saw_low003__0"
    }
  ],
  "samplers": [
    {
      "magFilter": 9729,
      "minFilter": 9987,
      "wrapS": 10497,
      "wrapT": 10497
    }
  ],
  "scene": 0,
  "scenes": [
    {
      "name": "Sketchfab_Scene",
      "nodes": [
        0
      ]
    }
  ],
  "textures": [
    {
      "sampler": 0,
      "source": 0
    },
    {
      "sampler": 0,
      "source": 1
    },
    {
      "sampler": 0,
      "source": 2
    },
    {
      "sampler": 0,
      "source": 3
    }
  ]
}
