{
  "asset": {
    "version": "2.0",
    "generator": "BrokenEngine OBJ to glTF converter"
  },
  "scene": 0,
  "scenes": [
    {
      "nodes": [
        0
      ]
    }
  ],
  "nodes": [
    {
      "mesh": 0
    }
  ],
  "meshes": [
    {
      "primitives": [
        {
          "attributes": {
            "POSITION": 0,
            "NORMAL": 1
          },
          "indices": 2,
          "material": 0,
          "mode": 4
        }
      ]
    }
  ],
  "accessors": [
    {
      "bufferView": 0,
      "componentType": 5126,
      "count": 2268,
      "type": "VEC3",
      "min": [
        -20.0,
        -20.0,
        -20.0
      ],
      "max": [
        20.0,
        20.0,
        20.0
      ]
    },
    {
      "bufferView": 1,
      "componentType": 5126,
      "count": 2268,
      "type": "VEC3"
    },
    {
      "bufferView": 2,
      "componentType": 5123,
      "count": 2268,
      "type": "SCALAR"
    }
  ],
  "bufferViews": [
    {
      "buffer": 0,
      "byteOffset": 0,
      "byteLength": 27216,
      "target": 34962
    },
    {
      "buffer": 0,
      "byteOffset": 27216,
      "byteLength": 27216,
      "target": 34962
    },
    {
      "buffer": 0,
      "byteOffset": 54432,
      "byteLength": 4536,
      "target": 34963
    }
  ],
  "materials": [
    {
      "pbrMetallicRoughness": {
        "baseColorFactor": [1.0, 1.0, 1.0, 1.0],
        "metallicFactor": 0.0,
        "roughnessFactor": 1.0
      }
    }
  ],
  "buffers": [
    {
      "uri": "DualGeodesicIcosahedron.bin",
      "byteLength": 58968
    }
  ]
}